<svg id="visual" viewBox="0 0 900 600" width="900" height="600" xmlns="http://www.w3.org/2000/svg" xmlns:xlink="http://www.w3.org/1999/xlink" version="1.1"><path d="M0 291L37.5 282.2C75 273.3 150 255.7 225 259.2C300 262.7 375 287.3 450 302.8C525 318.3 600 324.7 675 309.5C750 294.3 825 257.7 862.5 239.3L900 221L900 601L862.5 601C825 601 750 601 675 601C600 601 525 601 450 601C375 601 300 601 225 601C150 601 75 601 37.5 601L0 601Z" fill="#2563eb" strokeLinecap="round" strokeLinejoin="miter"></path></svg>